<svg width="16" height="17" viewBox="0 0 16 17" fill="none" xmlns="http://www.w3.org/2000/svg">
<g clip-path="url(#clip0_7931_10706)">
<path d="M16 6.83347C15.9994 6.55865 15.9139 6.29073 15.7552 6.06638C15.5964 5.84202 15.3723 5.6722 15.1133 5.58013C15.0625 5.56359 15.0085 5.5586 14.9555 5.56552C14.9024 5.57244 14.8516 5.5911 14.8067 5.62013C14.7639 5.65188 14.729 5.69305 14.7047 5.74045C14.6805 5.78785 14.6674 5.84021 14.6667 5.89347V8.4468C14.6674 8.50005 14.6805 8.55241 14.7047 8.59981C14.729 8.64722 14.7639 8.68839 14.8067 8.72013C14.8514 8.74961 14.9023 8.76854 14.9554 8.77547C15.0085 8.7824 15.0625 8.77715 15.1133 8.76013C15.3733 8.66769 15.5983 8.49684 15.7571 8.27116C15.9159 8.04548 16.0008 7.77609 16 7.50013V6.83347Z" fill="white" fill-opacity="0.5"/>
<path d="M15.5 7.50013H15.5L15.5 7.50152C15.5005 7.67399 15.4474 7.84237 15.3482 7.98342C15.2976 8.05534 15.2362 8.11836 15.1667 8.17051V6.16976C15.2356 6.22149 15.2966 6.28392 15.347 6.35514C15.4461 6.49523 15.4995 6.66249 15.5 6.83408V7.50013Z" stroke="white" stroke-opacity="0.5"/>
<path d="M13.6667 2.83304C13.6663 2.66498 13.6233 2.49976 13.5417 2.35285C13.46 2.20594 13.3425 2.08214 13.2 1.99304C12.6467 1.6397 12.22 1.93304 11.3867 2.3397C9.31837 3.45642 7.01633 4.07075 4.66665 4.13304C4.61993 4.1328 4.57368 4.14239 4.5309 4.16119C4.48812 4.17999 4.44977 4.20757 4.41834 4.24214C4.3869 4.27672 4.36309 4.31751 4.34845 4.36188C4.3338 4.40626 4.32865 4.45321 4.33332 4.4997V10.2264C4.34585 11.245 4.63865 12.2404 5.1796 13.1036C5.72056 13.9668 6.48877 14.6643 7.39999 15.1197C7.55912 15.1984 7.74299 15.2106 7.91114 15.1537C8.0793 15.0969 8.21797 14.9755 8.29665 14.8164C8.37533 14.6572 8.38758 14.4734 8.33069 14.3052C8.27381 14.1371 8.15245 13.9984 7.99332 13.9197C7.31594 13.5836 6.74243 13.07 6.33388 12.4337C5.92532 11.7974 5.69703 11.0622 5.67332 10.3064C7.66566 10.4612 9.60534 11.0216 11.3733 11.953C12.2933 12.3864 12.6667 12.6197 13.2133 12.293C13.3539 12.2013 13.4691 12.0756 13.5483 11.9277C13.6275 11.7797 13.6682 11.6142 13.6667 11.4464V2.83304Z" fill="white" fill-opacity="0.5"/>
<path d="M7.39999 15.1197L7.62351 14.6724C6.79443 14.2581 6.09547 13.6235 5.60328 12.8381C5.11162 12.0536 4.84526 11.149 4.83332 10.2232V4.62803C7.20472 4.54164 9.52521 3.91117 11.6151 2.78456C11.725 2.73088 11.8226 2.68214 11.9107 2.6382C12.1859 2.50079 12.3672 2.41026 12.5357 2.36213C12.6303 2.33508 12.6927 2.33156 12.7403 2.33733C12.786 2.34285 12.8459 2.36017 12.9309 2.41445L12.9309 2.41447L12.9349 2.41697C13.0057 2.46123 13.064 2.52271 13.1046 2.59567C13.145 2.66853 13.1664 2.75045 13.1667 2.83379C13.1667 2.83391 13.1667 2.83403 13.1667 2.83415L13.1667 11.4464H13.1666L13.1667 11.451C13.1675 11.5349 13.1471 11.6177 13.1075 11.6917L13.5483 11.9277L13.1075 11.6917C13.0693 11.763 13.0145 11.8239 12.9477 11.8693C12.8613 11.9196 12.8017 11.9371 12.7567 11.9433C12.7099 11.9497 12.6504 11.9478 12.5587 11.924C12.3802 11.8778 12.1736 11.7795 11.8307 11.6165C11.7589 11.5824 11.6812 11.5454 11.5964 11.5054C9.77084 10.5453 7.76858 9.9677 5.71206 9.80787L5.15608 9.76466L5.17357 10.322C5.20011 11.1683 5.45571 11.9914 5.91313 12.7039C6.37056 13.4163 7.01268 13.9913 7.77108 14.3676L7.77171 14.3679C7.81197 14.3878 7.84267 14.4229 7.85706 14.4654C7.87145 14.508 7.86835 14.5545 7.84845 14.5948C7.82854 14.635 7.79346 14.6657 7.75092 14.6801C7.70838 14.6945 7.66186 14.6914 7.6216 14.6715L7.39999 15.1197ZM7.39999 15.1197C6.48877 14.6643 5.72056 13.9668 5.1796 13.1036C4.63865 12.2404 4.34585 11.245 4.33332 10.2264M7.39999 15.1197L4.33332 10.2264M4.33332 10.2264V4.4997C4.32865 4.45321 4.3338 4.40626 4.34845 4.36188C4.36309 4.31751 4.3869 4.27672 4.41834 4.24214C4.44977 4.20757 4.48812 4.17999 4.5309 4.16119C4.57368 4.14239 4.61993 4.1328 4.66665 4.13304L4.33332 10.2264Z" stroke="white" stroke-opacity="0.5"/>
<mask id="path-5-inside-1_7931_10706" fill="white">
<path d="M3.33333 4.49936C3.33398 4.45464 3.32543 4.41026 3.30823 4.36898C3.29103 4.3277 3.26554 4.29039 3.23333 4.25936C3.17071 4.199 3.08697 4.1655 2.99999 4.16603H2.33333C2.02666 4.16515 1.72285 4.2249 1.43936 4.34185C1.15587 4.4588 0.898295 4.63064 0.68145 4.84748C0.464604 5.06433 0.292766 5.3219 0.175816 5.60539C0.0588672 5.88888 -0.00088564 6.19269 -5.67935e-06 6.49936V7.83269C0.000866395 8.13967 0.0623058 8.44347 0.180792 8.72666C0.299278 9.00986 0.472482 9.26689 0.690478 9.48303C0.908475 9.69916 1.16698 9.87016 1.45118 9.98622C1.73538 10.1023 2.03968 10.1611 2.34666 10.1594H3.01333C3.09826 10.156 3.17869 10.1203 3.23818 10.0595C3.29766 9.99883 3.33169 9.91768 3.33333 9.83269V4.49936Z"/>
</mask>
<path d="M3.33333 4.49936C3.33398 4.45464 3.32543 4.41026 3.30823 4.36898C3.29103 4.3277 3.26554 4.29039 3.23333 4.25936C3.17071 4.199 3.08697 4.1655 2.99999 4.16603H2.33333C2.02666 4.16515 1.72285 4.2249 1.43936 4.34185C1.15587 4.4588 0.898295 4.63064 0.68145 4.84748C0.464604 5.06433 0.292766 5.3219 0.175816 5.60539C0.0588672 5.88888 -0.00088564 6.19269 -5.67935e-06 6.49936V7.83269C0.000866395 8.13967 0.0623058 8.44347 0.180792 8.72666C0.299278 9.00986 0.472482 9.26689 0.690478 9.48303C0.908475 9.69916 1.16698 9.87016 1.45118 9.98622C1.73538 10.1023 2.03968 10.1611 2.34666 10.1594H3.01333C3.09826 10.156 3.17869 10.1203 3.23818 10.0595C3.29766 9.99883 3.33169 9.91768 3.33333 9.83269V4.49936Z" fill="white" fill-opacity="0.5"/>
<path d="M3.33333 4.49936L2.33343 4.48486L2.33333 4.49211V4.49936H3.33333ZM3.23333 4.25936L2.53933 4.97934L2.53955 4.97955L3.23333 4.25936ZM2.99999 4.16603V5.16604L3.006 5.16601L2.99999 4.16603ZM2.33333 4.16603L2.33046 5.16603H2.33333V4.16603ZM-5.67935e-06 6.49936H0.999998L0.99999 6.49649L-5.67935e-06 6.49936ZM-5.67935e-06 7.83269H-1.00001L-1 7.83553L-5.67935e-06 7.83269ZM2.34666 10.1594V9.15934L2.34094 9.15937L2.34666 10.1594ZM3.01333 10.1594V11.1594H3.03324L3.05314 11.1586L3.01333 10.1594ZM3.33333 9.83269L4.33314 9.8519L4.33333 9.8423V9.83269H3.33333ZM4.33322 4.51386C4.33586 4.33225 4.30117 4.15203 4.23131 3.98437L2.38516 4.7536C2.3497 4.6685 2.3321 4.57703 2.33343 4.48486L4.33322 4.51386ZM4.23131 3.98437C4.16145 3.8167 4.05791 3.66517 3.9271 3.53916L2.53955 4.97955C2.47316 4.9156 2.42061 4.83869 2.38516 4.7536L4.23131 3.98437ZM3.92732 3.53938C3.67683 3.29793 3.34189 3.16395 2.99399 3.16604L3.006 5.16601C2.83205 5.16705 2.66458 5.10006 2.53933 4.97934L3.92732 3.53938ZM2.99999 3.16603H2.33333V5.16603H2.99999V3.16603ZM2.3362 3.16603C1.89773 3.16477 1.46334 3.25021 1.058 3.41742L1.82072 5.26628C1.98236 5.19959 2.1556 5.16552 2.33046 5.16602L2.3362 3.16603ZM1.058 3.41742C0.652668 3.58463 0.284388 3.83033 -0.0256572 4.14037L1.38856 5.55459C1.5122 5.43094 1.65907 5.33296 1.82072 5.26628L1.058 3.41742ZM-0.0256572 4.14037C-0.335703 4.45042 -0.581397 4.8187 -0.748611 5.22403L1.10024 5.98675C1.16693 5.8251 1.26491 5.67823 1.38856 5.55459L-0.0256572 4.14037ZM-0.748611 5.22403C-0.915825 5.62937 -1.00126 6.06376 -1 6.50223L0.99999 6.49649C0.999488 6.32163 1.03356 6.14839 1.10024 5.98675L-0.748611 5.22403ZM-1.00001 6.49936V7.83269H0.999994V6.49936H-1.00001ZM-1 7.83553C-0.998756 8.27408 -0.910985 8.70807 -0.741719 9.11263L1.1033 8.34069C1.0356 8.17886 1.00049 8.00527 0.99999 7.82985L-1 7.83553ZM-0.741719 9.11263C-0.572453 9.51719 -0.32502 9.88438 -0.0135958 10.1932L1.39455 8.7729C1.26998 8.64939 1.17101 8.50252 1.1033 8.34069L-0.741719 9.11263ZM-0.0135958 10.1932C0.297828 10.5019 0.66712 10.7462 1.07312 10.912L1.82924 9.06044C1.66684 8.99412 1.51912 8.89641 1.39455 8.7729L-0.0135958 10.1932ZM1.07312 10.912C1.47912 11.0778 1.91384 11.1618 2.35238 11.1593L2.34094 9.15937C2.16553 9.16038 1.99164 9.12676 1.82924 9.06044L1.07312 10.912ZM2.34666 11.1594H3.01333V9.15936H2.34666V11.1594ZM3.05314 11.1586C3.39288 11.145 3.71461 11.0022 3.95253 10.7593L2.52382 9.35977C2.64278 9.23833 2.80365 9.16692 2.97351 9.16015L3.05314 11.1586ZM3.95253 10.7593C4.19046 10.5164 4.32661 10.1918 4.33314 9.8519L2.33351 9.81348C2.33678 9.64351 2.40485 9.48121 2.52382 9.35977L3.95253 10.7593ZM4.33333 9.83269V4.49936H2.33333V9.83269H4.33333Z" fill="white" fill-opacity="0.5" mask="url(#path-5-inside-1_7931_10706)"/>
</g>
<defs>
<clipPath id="clip0_7931_10706">
<rect width="16" height="16" fill="white" transform="translate(0 0.5)"/>
</clipPath>
</defs>
</svg>
