<svg width="41" height="40" viewBox="0 0 41 40" fill="none" xmlns="http://www.w3.org/2000/svg">
<path fill-rule="evenodd" clip-rule="evenodd" d="M8 35.0013H36.3333C37.714 35.0013 38.8333 33.882 38.8333 32.5013V14.168C38.8333 12.7873 37.714 11.668 36.3333 11.668H18.8333L14.5656 7.4002C14.0967 6.93136 13.4608 6.66797 12.7978 6.66797H8C6.61929 6.66797 5.5 7.78726 5.5 9.16797V32.5013C5.5 33.882 6.61929 35.0013 8 35.0013Z" fill="#D1822C"/>
<path fill-rule="evenodd" clip-rule="evenodd" d="M4.66602 31.6654H32.9993C34.3801 31.6654 35.4993 30.5461 35.4993 29.1654V10.832C35.4993 9.45132 34.3801 8.33203 32.9993 8.33203H15.4993L11.2316 4.06426C10.7627 3.59542 10.1269 3.33203 9.46382 3.33203H4.66602C3.2853 3.33203 2.16602 4.45132 2.16602 5.83203V29.1654C2.16602 30.5461 3.2853 31.6654 4.66602 31.6654Z" fill="#F3B357"/>
<path fill-rule="evenodd" clip-rule="evenodd" d="M24.5611 22.508H21.3003V25.8542C21.3003 26.3144 20.9272 26.6875 20.4669 26.6875H18.7614C18.3012 26.6875 17.9281 26.3144 17.9281 25.8542V22.508H14.6673C14.2071 22.508 13.834 22.135 13.834 21.6747C13.834 21.4775 13.9039 21.2867 14.0313 21.1362L18.9782 15.2935C19.2756 14.9422 19.8014 14.8986 20.1527 15.196C20.1878 15.2257 20.2204 15.2583 20.2502 15.2935L25.1971 21.1362C25.4944 21.4875 25.4508 22.0133 25.0995 22.3107C24.949 22.4381 24.7582 22.508 24.5611 22.508Z" fill="#EB9B2C"/>
</svg>
